<mxfile host="app.diagrams.net" modified="2023-09-04T09:20:49.821Z" agent="Mozilla/5.0 (Macintosh; Intel Mac OS X 10_15_7) AppleWebKit/537.36 (KHTML, like Gecko) Chrome/116.0.0.0 Safari/537.36 Edg/116.0.1938.69" version="21.7.2" etag="Ufd7Y8lSfZ3MoTMJY4_7" type="github">
  <diagram name="第 1 页" id="3UVsxSNTfgMwQhaedeGX">
    <mxGraphModel>
      <root>
        <mxCell id="0" />
        <mxCell id="1" parent="0" />
      </root>
    </mxGraphModel>
  </diagram>
</mxfile>
